<svg version="1.1" xmlns="http://www.w3.org/2000/svg" xmlns:xlink="http://www.w3.org/1999/xlink" x="0px" y="0px"
	 viewBox="0 0 512 512" style="enable-background:new 0 0 512 512;" xml:space="preserve">
<path style="fill:#546E7A;" d="M352,42.667c-43.647,1.592-86.423-12.483-120.597-39.68C229.415,1.071,226.761,0,224,0H96
	c-5.891,0.004-10.664,4.782-10.66,10.673c0.001,1.553,0.341,3.087,0.996,4.495l149.333,320c1.749,3.758,5.518,6.163,9.664,6.165
	h149.333c23.467,0,117.333-53.717,117.333-138.667C511.906,114.34,440.327,42.761,352,42.667z"/>
<path style="fill:#FFC107;" d="M117.333,341.333c-5.891-0.003-10.664-4.781-10.661-10.672c0.001-2.101,0.623-4.155,1.786-5.904
	l128-192c3.27-4.901,9.893-6.224,14.795-2.955c4.901,3.27,6.224,9.893,2.955,14.795l-128,192
	C124.227,339.559,120.897,341.336,117.333,341.333z"/>
<g>
	<path style="fill:#546E7A;" d="M373.333,512c-5.891,0-10.667-4.776-10.667-10.667v-64c0-5.891,4.776-10.667,10.667-10.667
		S384,431.442,384,437.333v64C384,507.224,379.224,512,373.333,512z"/>
	<path style="fill:#546E7A;" d="M96,512c-5.891,0-10.667-4.776-10.667-10.667v-64c0-5.891,4.776-10.667,10.667-10.667
		c5.891,0,10.667,4.776,10.667,10.667v64C106.667,507.224,101.891,512,96,512z"/>
</g>
<path style="fill:#455A64;" d="M458.667,320h-384C68.776,320,64,324.776,64,330.667C64,360.122,40.122,384,10.667,384
	C4.776,384,0,388.776,0,394.667v42.667C0,443.224,4.776,448,10.667,448h448c5.891,0,10.667-4.776,10.667-10.667V330.667
	C469.333,324.776,464.558,320,458.667,320z"/>
</svg>
